<?xml version="1.0"?>
<svg xmlns="http://www.w3.org/2000/svg" xmlns:xlink="http://www.w3.org/1999/xlink" xmlns:svgjs="http://svgjs.com/svgjs" version="1.1" width="512" height="512" x="0" y="0" viewBox="0 0 512 512" style="enable-background:new 0 0 512 512" xml:space="preserve" class=""><g>
<g xmlns="http://www.w3.org/2000/svg">
	<g>
		<path d="M338.569,174.902c-0.332-4.129-3.961-7.215-8.082-6.877c-23.872,1.92-48.936,2.894-74.497,2.894    c-60.941,0-117.791-5.466-160.078-15.391c-4.026-0.94-8.073,1.556-9.021,5.591c-0.947,4.036,1.557,8.074,5.591,9.021    c43.378,10.181,101.446,15.787,163.508,15.787c25.96,0,51.43-0.99,75.701-2.943C335.823,182.652,338.901,179.033,338.569,174.902z    " fill="#1f57bb" data-original="#000000" style="" class=""/>
	</g>
</g>
<g xmlns="http://www.w3.org/2000/svg">
	<g>
		<path d="M338.569,303.515c-0.332-4.13-3.961-7.213-8.082-6.877c-23.872,1.92-48.936,2.894-74.497,2.894    c-60.941,0-117.791-5.466-160.078-15.391c-4.026-0.943-8.073,1.556-9.021,5.591c-0.947,4.036,1.557,8.074,5.591,9.021    c43.378,10.181,101.446,15.787,163.508,15.787c25.96,0,51.43-0.99,75.701-2.943C335.823,311.265,338.901,307.646,338.569,303.515z    " fill="#1f57bb" data-original="#000000" style="" class=""/>
	</g>
</g>
<g xmlns="http://www.w3.org/2000/svg">
	<g>
		<path d="M492.036,59.031c-1.582-35.887-98.66-49.916-140.601-54.298C338.495,3.381,324.932,2.3,311.12,1.522    C293.177,0.512,274.628,0,255.99,0c-47.689,0-93.486,3.316-132.44,9.591c-4.092,0.659-6.875,4.51-6.215,8.602    c0.659,4.091,4.515,6.877,8.602,6.215c38.179-6.149,83.15-9.4,130.054-9.4c18.358,0,36.622,0.504,54.286,1.499    c13.572,0.764,26.895,1.825,39.6,3.152c38.81,4.055,71.621,10.495,94.885,18.624c30.746,10.744,32.304,19.906,32.304,21.633    c0,5.843-12.874,18.684-61.122,29.747c-1.333,0.306-2.679,0.607-4.039,0.904c-42.155,9.205-97.298,14.258-155.914,14.258    c-58.616,0-113.759-5.054-155.914-14.258c-1.36-0.297-2.706-0.598-4.039-0.904c-47.81-10.962-60.877-23.665-61.111-29.58    c0.001-0.056,0.008-0.11,0.008-0.165c0-0.053-0.007-0.104-0.008-0.157c0.123-3.532,4.399-8.034,11.792-12.387    c9.328-5.493,23.006-10.574,40.656-15.102c4.014-1.03,6.433-5.119,5.403-9.134c-1.03-4.013-5.115-6.43-9.134-5.403    c-42.293,10.85-63.738,25.044-63.738,42.184v392.166c0,18.373,24.486,33.303,72.777,44.376    C136.391,506.481,194.388,512,255.99,512s119.601-5.519,163.306-15.541c48.291-11.073,72.777-26.003,72.777-44.376V60.304    c0.007-0.129,0.02-0.257,0.02-0.387C492.094,59.617,492.072,59.322,492.036,59.031z M415.943,481.83    c-42.64,9.777-99.445,15.161-159.953,15.161s-117.313-5.384-159.953-15.161c-48.248-11.064-61.122-23.904-61.122-29.747V344.171    c0.164,0.113,0.345,0.224,0.512,0.337c0.407,0.275,0.824,0.548,1.247,0.82c0.342,0.22,0.687,0.44,1.039,0.659    c0.441,0.274,0.895,0.545,1.353,0.816c0.36,0.213,0.717,0.427,1.087,0.638c0.483,0.276,0.982,0.55,1.482,0.824    c0.37,0.202,0.733,0.405,1.112,0.606c0.545,0.289,1.11,0.574,1.674,0.86c0.358,0.181,0.706,0.364,1.072,0.544    c0.699,0.344,1.422,0.684,2.149,1.024c0.254,0.118,0.495,0.239,0.752,0.357c0.987,0.453,2.001,0.902,3.039,1.347    c0.324,0.139,0.665,0.275,0.995,0.414c0.733,0.308,1.467,0.615,2.225,0.919c0.431,0.173,0.878,0.343,1.317,0.515    c0.68,0.266,1.36,0.532,2.059,0.795c0.484,0.182,0.981,0.362,1.474,0.542c0.68,0.249,1.363,0.498,2.06,0.745    c0.519,0.183,1.05,0.365,1.579,0.547c0.699,0.24,1.403,0.48,2.12,0.718c0.545,0.181,1.098,0.361,1.653,0.541    c0.726,0.235,1.46,0.469,2.203,0.701c0.568,0.178,1.14,0.355,1.718,0.531c0.76,0.232,1.532,0.462,2.309,0.691    c0.583,0.172,1.165,0.343,1.758,0.514c0.806,0.232,1.627,0.461,2.451,0.69c0.587,0.163,1.17,0.327,1.766,0.488    c0.875,0.237,1.769,0.472,2.664,0.706c0.567,0.149,1.128,0.299,1.703,0.446c1.005,0.258,2.032,0.512,3.06,0.766    c0.489,0.121,0.967,0.243,1.461,0.363c1.534,0.372,3.09,0.74,4.675,1.103c43.708,10.021,101.704,15.541,163.307,15.541    s119.6-5.52,163.307-15.541c1.585-0.363,3.141-0.732,4.675-1.103c0.495-0.12,0.974-0.242,1.463-0.363    c1.027-0.254,2.053-0.507,3.057-0.765c0.577-0.148,1.138-0.298,1.707-0.447c0.893-0.234,1.786-0.469,2.66-0.706    c0.596-0.162,1.179-0.325,1.766-0.488c0.824-0.229,1.645-0.458,2.451-0.69c0.592-0.17,1.175-0.342,1.758-0.514    c0.777-0.229,1.549-0.459,2.309-0.691c0.578-0.176,1.15-0.353,1.719-0.531c0.742-0.232,1.475-0.466,2.201-0.7    c0.556-0.18,1.11-0.36,1.656-0.542c0.715-0.238,1.419-0.477,2.117-0.717c0.529-0.182,1.06-0.364,1.579-0.547    c0.698-0.246,1.38-0.495,2.06-0.745c0.493-0.181,0.99-0.36,1.474-0.542c0.699-0.263,1.379-0.529,2.059-0.795    c0.439-0.172,0.886-0.342,1.317-0.515c0.755-0.303,1.488-0.61,2.219-0.917c0.332-0.139,0.675-0.277,1.002-0.417    c1.038-0.445,2.051-0.894,3.038-1.346c0.257-0.118,0.499-0.238,0.752-0.357c0.727-0.34,1.45-0.68,2.149-1.024    c0.366-0.18,0.714-0.363,1.072-0.544c0.564-0.286,1.129-0.571,1.674-0.86c0.379-0.201,0.743-0.404,1.113-0.607    c0.499-0.273,0.998-0.547,1.48-0.823c0.371-0.212,0.729-0.426,1.09-0.64c0.457-0.271,0.91-0.542,1.351-0.815    c0.353-0.219,0.697-0.439,1.04-0.659c0.423-0.272,0.84-0.546,1.247-0.82c0.167-0.113,0.347-0.224,0.512-0.337v107.912h0.001    C477.065,457.926,464.192,470.767,415.943,481.83z M476.708,323.182c-2.367,6.415-17.039,17.9-60.764,27.927    c-42.64,9.777-99.446,15.162-159.953,15.162s-117.313-5.385-159.953-15.162c-43.725-10.027-58.397-21.512-60.764-27.927    c-0.245-0.663-0.358-1.273-0.358-1.821V213.448c0.159,0.109,0.333,0.216,0.494,0.325c0.418,0.282,0.846,0.563,1.281,0.843    c0.334,0.215,0.669,0.429,1.013,0.642c0.449,0.278,0.911,0.555,1.377,0.831c0.353,0.209,0.704,0.419,1.067,0.626    c0.488,0.279,0.992,0.555,1.497,0.832c0.366,0.2,0.726,0.401,1.101,0.6c0.543,0.288,1.106,0.573,1.669,0.857    c0.362,0.183,0.714,0.368,1.083,0.55c0.688,0.339,1.4,0.673,2.115,1.008c0.264,0.124,0.517,0.249,0.785,0.372    c0.985,0.452,1.997,0.9,3.032,1.344c0.342,0.147,0.703,0.291,1.051,0.437c0.714,0.299,1.428,0.599,2.165,0.895    c0.447,0.179,0.911,0.356,1.366,0.534c0.663,0.259,1.326,0.519,2.008,0.775c0.497,0.187,1.009,0.372,1.516,0.558    c0.666,0.244,1.333,0.487,2.016,0.729c0.531,0.188,1.074,0.374,1.615,0.56c0.687,0.236,1.378,0.471,2.081,0.705    c0.556,0.185,1.12,0.368,1.686,0.551c0.717,0.232,1.441,0.462,2.174,0.692c0.575,0.18,1.154,0.359,1.739,0.537    c0.754,0.23,1.518,0.458,2.288,0.684c0.588,0.173,1.176,0.347,1.773,0.518c0.802,0.23,1.618,0.459,2.438,0.686    c0.591,0.164,1.179,0.329,1.779,0.492c0.868,0.235,1.754,0.468,2.641,0.701c0.575,0.151,1.143,0.303,1.726,0.452    c1,0.257,2.023,0.509,3.047,0.762c0.492,0.121,0.973,0.245,1.47,0.365c1.534,0.372,3.09,0.74,4.675,1.103    c43.708,10.021,101.705,15.541,163.307,15.541s119.6-5.52,163.307-15.541c1.585-0.363,3.141-0.732,4.675-1.103    c0.498-0.121,0.98-0.244,1.472-0.365c1.023-0.252,2.044-0.505,3.043-0.761c0.584-0.15,1.154-0.302,1.73-0.453    c0.885-0.232,1.77-0.464,2.637-0.7c0.6-0.163,1.188-0.328,1.779-0.492c0.819-0.228,1.636-0.456,2.438-0.686    c0.598-0.172,1.186-0.345,1.773-0.518c0.77-0.227,1.535-0.455,2.288-0.684c0.585-0.178,1.164-0.358,1.74-0.538    c0.732-0.229,1.456-0.459,2.172-0.691c0.567-0.183,1.132-0.367,1.689-0.552c0.702-0.233,1.392-0.468,2.078-0.704    c0.542-0.186,1.084-0.372,1.616-0.56c0.683-0.241,1.35-0.485,2.016-0.729c0.507-0.186,1.019-0.37,1.516-0.558    c0.682-0.256,1.344-0.516,2.008-0.775c0.455-0.178,0.919-0.355,1.366-0.534c0.735-0.295,1.447-0.593,2.159-0.892    c0.351-0.147,0.713-0.292,1.058-0.44c1.036-0.444,2.047-0.892,3.032-1.344c0.268-0.123,0.52-0.248,0.785-0.372    c0.715-0.334,1.427-0.669,2.115-1.008c0.369-0.182,0.721-0.366,1.083-0.55c0.562-0.285,1.126-0.57,1.669-0.857    c0.375-0.199,0.736-0.4,1.102-0.601c0.504-0.276,1.008-0.552,1.495-0.831c0.364-0.208,0.716-0.418,1.07-0.628    c0.465-0.276,0.927-0.552,1.375-0.83c0.344-0.213,0.679-0.428,1.013-0.642c0.435-0.28,0.863-0.561,1.281-0.843    c0.161-0.109,0.335-0.216,0.494-0.325v107.913h0.001C477.065,321.909,476.953,322.518,476.708,323.182z M415.943,220.386    c-42.64,9.777-99.446,15.162-159.953,15.162s-117.313-5.385-159.953-15.162c-48.248-11.063-61.122-23.903-61.122-29.747V82.726    c0.159,0.109,0.333,0.216,0.494,0.325c0.418,0.282,0.846,0.563,1.281,0.843c0.334,0.215,0.669,0.429,1.013,0.642    c0.449,0.278,0.911,0.555,1.377,0.831c0.353,0.209,0.704,0.419,1.067,0.626c0.488,0.279,0.992,0.555,1.497,0.832    c0.366,0.2,0.726,0.401,1.101,0.6c0.543,0.288,1.106,0.573,1.669,0.857c0.362,0.183,0.714,0.368,1.083,0.55    c0.688,0.339,1.4,0.673,2.115,1.008c0.264,0.124,0.517,0.249,0.785,0.372c0.985,0.452,1.997,0.9,3.032,1.344    c0.342,0.147,0.703,0.291,1.051,0.437c0.714,0.299,1.428,0.599,2.165,0.895c0.447,0.179,0.911,0.356,1.366,0.534    c0.663,0.259,1.326,0.519,2.008,0.775c0.497,0.187,1.009,0.372,1.516,0.558c0.666,0.244,1.333,0.487,2.016,0.729    c0.531,0.188,1.074,0.374,1.615,0.56c0.687,0.236,1.378,0.471,2.081,0.705c0.556,0.185,1.12,0.368,1.686,0.551    c0.717,0.232,1.441,0.462,2.174,0.692c0.575,0.18,1.154,0.359,1.739,0.537c0.754,0.23,1.518,0.458,2.288,0.684    c0.588,0.173,1.176,0.347,1.773,0.518c0.802,0.23,1.618,0.459,2.438,0.686c0.591,0.164,1.179,0.329,1.779,0.492    c0.868,0.235,1.754,0.468,2.641,0.701c0.575,0.151,1.143,0.303,1.726,0.452c1,0.256,2.023,0.509,3.047,0.762    c0.492,0.121,0.973,0.245,1.47,0.365c1.534,0.372,3.09,0.74,4.675,1.103c43.707,10.021,101.704,15.541,163.307,15.541    s119.601-5.52,163.307-15.541c1.585-0.363,3.141-0.732,4.675-1.103c0.498-0.121,0.98-0.244,1.472-0.365    c1.023-0.252,2.044-0.505,3.043-0.761c0.584-0.15,1.154-0.302,1.73-0.453c0.885-0.232,1.77-0.464,2.637-0.7    c0.6-0.163,1.188-0.328,1.779-0.492c0.819-0.228,1.636-0.456,2.438-0.686c0.598-0.172,1.186-0.345,1.773-0.518    c0.77-0.227,1.535-0.455,2.288-0.684c0.585-0.178,1.164-0.358,1.74-0.538c0.732-0.229,1.456-0.459,2.172-0.691    c0.567-0.183,1.132-0.367,1.689-0.552c0.702-0.233,1.392-0.468,2.078-0.704c0.542-0.186,1.084-0.372,1.616-0.56    c0.683-0.241,1.35-0.485,2.016-0.729c0.507-0.186,1.019-0.37,1.516-0.558c0.682-0.256,1.344-0.516,2.008-0.775    c0.455-0.178,0.919-0.355,1.366-0.534c0.735-0.295,1.447-0.593,2.159-0.892c0.351-0.147,0.713-0.292,1.058-0.44    c1.036-0.444,2.047-0.892,3.032-1.344c0.268-0.123,0.52-0.248,0.785-0.372c0.715-0.334,1.427-0.669,2.115-1.008    c0.369-0.182,0.721-0.366,1.083-0.55c0.562-0.285,1.126-0.57,1.669-0.857c0.375-0.199,0.736-0.4,1.102-0.601    c0.504-0.276,1.008-0.552,1.495-0.831c0.364-0.208,0.716-0.418,1.07-0.628c0.465-0.276,0.927-0.552,1.375-0.83    c0.344-0.213,0.679-0.428,1.013-0.642c0.435-0.28,0.863-0.561,1.281-0.843c0.161-0.109,0.335-0.216,0.494-0.325v107.913h0.001    C477.065,196.482,464.192,209.323,415.943,220.386z" fill="#1f57bb" data-original="#000000" style="" class=""/>
	</g>
</g>
<g xmlns="http://www.w3.org/2000/svg">
	<g>
		<path d="M415.504,144.51c-11.408-11.405-29.967-11.405-41.374,0c-11.406,11.407-11.406,29.966,0,41.373    c5.703,5.702,13.195,8.555,20.687,8.555s14.983-2.852,20.687-8.555C426.91,174.476,426.91,155.917,415.504,144.51z M404.89,175.27    c-2.69,2.691-6.268,4.173-10.073,4.173s-7.383-1.482-10.073-4.173c-2.691-2.69-4.173-6.268-4.173-10.073s1.482-7.383,4.173-10.073    c2.69-2.691,6.268-4.173,10.073-4.173s7.383,1.482,10.073,4.173c2.691,2.69,4.173,6.268,4.173,10.073    S407.581,172.58,404.89,175.27z" fill="#1f57bb" data-original="#000000" style="" class=""/>
	</g>
</g>
<g xmlns="http://www.w3.org/2000/svg">
	<g>
		<path d="M415.504,273.513c-11.408-11.405-29.967-11.405-41.374,0c-11.406,11.407-11.406,29.966,0,41.373    c5.703,5.702,13.195,8.555,20.687,8.555s14.983-2.852,20.687-8.555C426.91,303.479,426.91,284.92,415.504,273.513z     M404.89,304.273c-2.69,2.691-6.268,4.173-10.073,4.173s-7.383-1.482-10.073-4.173c-2.691-2.69-4.173-6.268-4.173-10.073    s1.482-7.383,4.173-10.073c2.69-2.691,6.268-4.173,10.073-4.173s7.383,1.482,10.073,4.173c2.691,2.69,4.173,6.268,4.173,10.073    S407.581,301.583,404.89,304.273z" fill="#1f57bb" data-original="#000000" style="" class=""/>
	</g>
</g>
<g xmlns="http://www.w3.org/2000/svg">
	<g>
		<path d="M415.504,402.711c-11.408-11.405-29.967-11.405-41.374,0c-11.406,11.407-11.406,29.966,0,41.373    c5.703,5.702,13.195,8.555,20.687,8.555s14.983-2.852,20.687-8.555C426.91,432.677,426.91,414.118,415.504,402.711z     M404.89,433.471c-2.69,2.691-6.268,4.173-10.073,4.173s-7.383-1.482-10.073-4.173c-2.691-2.69-4.173-6.268-4.173-10.073    s1.482-7.383,4.173-10.073c2.69-2.691,6.268-4.173,10.073-4.173s7.383,1.482,10.073,4.173c2.691,2.69,4.173,6.268,4.173,10.073    C409.063,427.202,407.581,430.781,404.89,433.471z" fill="#1f57bb" data-original="#000000" style="" class=""/>
	</g>
</g>
<g xmlns="http://www.w3.org/2000/svg">
	<g>
		<path d="M338.57,434.554c-0.332-4.129-3.961-7.224-8.082-6.877c-10.495,0.844-21.339,1.513-32.231,1.986    c-4.14,0.181-7.351,3.683-7.171,7.824c0.176,4.03,3.497,7.178,7.492,7.178c0.11,0,0.221-0.002,0.332-0.007    c11.076-0.482,22.104-1.162,32.782-2.022C335.823,442.304,338.903,438.685,338.57,434.554z" fill="#1f57bb" data-original="#000000" style="" class=""/>
	</g>
</g>
<g xmlns="http://www.w3.org/2000/svg">
	<g>
		<path d="M258.326,430.57c-0.006,0-0.013,0-0.019,0l-2.316,0.002c-60.941,0-117.791-5.466-160.078-15.391    c-4.026-0.943-8.073,1.556-9.021,5.591c-0.947,4.036,1.557,8.074,5.591,9.021c43.378,10.181,101.446,15.787,163.508,15.787    l2.353-0.002c4.145-0.011,7.496-3.379,7.486-7.523C265.818,433.917,262.461,430.57,258.326,430.57z" fill="#1f57bb" data-original="#000000" style="" class=""/>
	</g>
</g>
<g xmlns="http://www.w3.org/2000/svg">
</g>
<g xmlns="http://www.w3.org/2000/svg">
</g>
<g xmlns="http://www.w3.org/2000/svg">
</g>
<g xmlns="http://www.w3.org/2000/svg">
</g>
<g xmlns="http://www.w3.org/2000/svg">
</g>
<g xmlns="http://www.w3.org/2000/svg">
</g>
<g xmlns="http://www.w3.org/2000/svg">
</g>
<g xmlns="http://www.w3.org/2000/svg">
</g>
<g xmlns="http://www.w3.org/2000/svg">
</g>
<g xmlns="http://www.w3.org/2000/svg">
</g>
<g xmlns="http://www.w3.org/2000/svg">
</g>
<g xmlns="http://www.w3.org/2000/svg">
</g>
<g xmlns="http://www.w3.org/2000/svg">
</g>
<g xmlns="http://www.w3.org/2000/svg">
</g>
<g xmlns="http://www.w3.org/2000/svg">
</g>
</g></svg>
